<?xml version="1.0" standalone="no"?>
<!DOCTYPE svg PUBLIC "-//W3C//DTD SVG 20010904//EN"
 "http://www.w3.org/TR/2001/REC-SVG-20010904/DTD/svg10.dtd">
<svg version="1.0" xmlns="http://www.w3.org/2000/svg"
 width="800.000000pt" height="566.000000pt" viewBox="0 0 800.000000 566.000000"
 preserveAspectRatio="xMidYMid meet">

<g transform="translate(0.000000,566.000000) scale(0.100000,-0.100000)"
fill="#000000" stroke="none">
<path d="M3370 4081 c-63 -5 -195 -11 -294 -15 -208 -9 -289 -26 -404 -86
-256 -133 -436 -411 -547 -844 -63 -247 -113 -660 -103 -855 5 -97 24 -145 80
-198 55 -53 111 -73 210 -73 l87 0 11 43 c37 143 106 245 218 321 90 62 167
87 277 93 253 14 472 -145 541 -395 l17 -62 551 0 551 0 13 53 c43 185 200
343 389 392 179 47 384 -14 513 -151 64 -69 124 -180 136 -251 l7 -43 76 0
c118 1 202 49 254 145 20 36 22 54 21 170 -2 161 -28 285 -83 399 -50 101
-111 171 -205 234 -94 63 -186 101 -426 178 l-195 62 -80 115 c-44 64 -108
151 -142 195 -83 104 -260 275 -353 341 -149 105 -337 184 -515 216 -104 20
-427 28 -605 16z m598 -390 c162 -41 297 -118 435 -250 75 -71 247 -275 247
-293 0 -4 -250 -8 -555 -8 l-555 0 0 291 0 292 173 -6 c127 -4 194 -11 255
-26z m-678 -266 l0 -285 -390 0 c-263 0 -390 3 -390 10 0 21 72 197 106 260
76 138 159 220 267 263 42 16 85 21 227 27 96 4 176 7 178 8 1 1 2 -126 2
-283z"/>
<path d="M2840 2284 c-135 -36 -227 -132 -260 -273 -36 -154 53 -328 203 -397
54 -25 73 -29 152 -29 77 1 98 5 147 29 73 35 139 101 174 174 24 49 28 70 29
147 0 79 -4 98 -29 152 -47 103 -141 178 -254 202 -67 14 -94 13 -162 -5z"/>
<path d="M5017 2290 c-106 -27 -201 -104 -246 -199 -23 -49 -26 -69 -26 -156
0 -95 2 -103 34 -163 41 -75 94 -125 170 -160 47 -22 70 -27 146 -27 82 0 96
3 157 33 74 36 132 95 169 170 20 40 24 62 24 152 0 96 -2 110 -28 158 -38 72
-97 128 -171 163 -70 33 -166 45 -229 29z"/>
</g>
</svg>
